<svg xmlns="http://www.w3.org/2000/svg" viewBox="0 0 31.53 31.63"><defs><style>.cls-1{fill:#4f4f4f;}</style></defs><title>Asset 3</title><g id="Layer_2" data-name="Layer 2"><g id="Layer_1-2" data-name="Layer 1"><path class="cls-1" d="M11.62,5.13A3.3,3.3,0,0,0,7,5.13,3.29,3.29,0,0,0,9.3,10.74a3.29,3.29,0,0,0,2.32-5.61Zm-.56,4.08a2.5,2.5,0,0,1-1.76.73,2.47,2.47,0,0,1-1.76-.73,2.49,2.49,0,0,1,0-3.52A2.46,2.46,0,0,1,9.3,5a2.48,2.48,0,0,1,1.76,4.24Z"/><path class="cls-1" d="M6.78,11.13a.4.4,0,0,1-.34.45,3.72,3.72,0,0,0-.89.25A3.66,3.66,0,0,0,4.09,13a3.15,3.15,0,0,0-.48.8.41.41,0,0,1-.38.26l-.14,0a.4.4,0,0,1-.23-.51,4.44,4.44,0,0,1,3.46-2.68A.41.41,0,0,1,6.78,11.13Z"/><path class="cls-1" d="M15.5,14a.35.35,0,0,1-.14,0,.4.4,0,0,1-.37-.26,3.77,3.77,0,0,0-.48-.8,3.57,3.57,0,0,0-1.46-1.12h0a4.34,4.34,0,0,0-.88-.24.4.4,0,0,1-.34-.45.41.41,0,0,1,.46-.34,4.46,4.46,0,0,1,3.46,2.68A.4.4,0,0,1,15.5,14Z"/><path class="cls-1" d="M30.94,27.43l-9.07-9.07a2,2,0,0,0-1.46-.59,2.43,2.43,0,0,0-1.7.72l0,0L16,15.87a9.47,9.47,0,1,0-.5.47L18.2,19a2.3,2.3,0,0,0-.52,1.36A2,2,0,0,0,18.27,22L27.34,31a2.06,2.06,0,0,0,1.46.6,2.44,2.44,0,0,0,1.7-.73l.31-.31A2.25,2.25,0,0,0,30.94,27.43ZM9.34,18A8.66,8.66,0,1,1,18,9.34,8.68,8.68,0,0,1,9.34,18Zm21,12.11-.31.31a1.77,1.77,0,0,1-1.22.52,1.37,1.37,0,0,1-1-.39l-9.07-9.07a1.38,1.38,0,0,1-.39-1.05,1.73,1.73,0,0,1,.52-1.15l0,0a0,0,0,0,0,0,0l.27-.27a1.74,1.74,0,0,1,1.22-.52,1.41,1.41,0,0,1,1,.39l9.07,9.07A1.57,1.57,0,0,1,30.33,30.11Z"/></g></g></svg>