<svg xmlns="http://www.w3.org/2000/svg" viewBox="0 0 24.78 33.98"><defs><style>.cls-1{fill:none;stroke:#4f4f4f;stroke-miterlimit:10;}.cls-2{fill:#4f4f4f;}</style></defs><title>Asset 4</title><g id="Layer_2" data-name="Layer 2"><g id="Layer_1-2" data-name="Layer 1"><path class="cls-1" d="M23.77,28.18h-.56c.67-3.18,2.91-17.32-8.39-23.12a.5.5,0,0,0-.6.11l-5,5.39a.53.53,0,0,0-.13.42l.28,2.13-1.63,4a.52.52,0,0,0,0,.42L9,20.08a.51.51,0,0,0,.3.26.53.53,0,0,0,.39,0c.41-.2,4-2,4.81-3.49a1.51,1.51,0,0,1,.34.82c.07.62,0,2.24-2.55,3.88C8.54,24,8.76,26.84,9.13,28.18H7.59a.51.51,0,0,0-.51.51V33a.51.51,0,0,0,.51.51H23.77a.51.51,0,0,0,.51-.51V28.69A.51.51,0,0,0,23.77,28.18Z"/><path class="cls-1" d="M2.87,11.75a2.37,2.37,0,1,0,2.37,2.36A2.37,2.37,0,0,0,2.87,11.75Z"/><path class="cls-1" d="M9.74,5.24A2.37,2.37,0,1,0,7.37,2.87,2.38,2.38,0,0,0,9.74,5.24Z"/><path class="cls-2" d="M5.36,5.69a.51.51,0,0,0-.72,0l-.74.74-.74-.74a.52.52,0,0,0-.73,0,.51.51,0,0,0,0,.72l.75.74-.75.74a.52.52,0,0,0,0,.73.5.5,0,0,0,.36.14.5.5,0,0,0,.37-.14l.74-.75.74.75a.53.53,0,0,0,.72,0,.52.52,0,0,0,0-.73l-.74-.74.74-.74A.51.51,0,0,0,5.36,5.69Z"/><path class="cls-2" d="M17.37,3.58a.53.53,0,0,0,.72,0l.74-.75.74.75a.53.53,0,0,0,.72,0,.52.52,0,0,0,0-.73l-.74-.74.74-.74a.51.51,0,0,0-.72-.72l-.74.74L18.09.65a.51.51,0,0,0-.72.72l.74.74-.74.74A.52.52,0,0,0,17.37,3.58Z"/><path class="cls-2" d="M13.43,9.81l-2.2,1.72a.51.51,0,0,0,.31.91.56.56,0,0,0,.32-.11l2.2-1.72a.5.5,0,0,0,.08-.71A.51.51,0,0,0,13.43,9.81Z"/></g></g></svg>