<svg xmlns="http://www.w3.org/2000/svg" viewBox="0 0 30.82 31.58"><defs><style>.cls-1{fill:#4f4f4f;}</style></defs><title>Asset 5</title><g id="Layer_2" data-name="Layer 2"><g id="Layer_1-2" data-name="Layer 1"><path class="cls-1" d="M6.53,12.82,10,14.11a.37.37,0,0,0,.39-.62l-1.22-1.7a5.64,5.64,0,1,0-2.64,1ZM5.86,2.32a4.9,4.9,0,0,1,2.59,9.06.37.37,0,0,0-.11.53L9.12,13l-2.42-.9a.37.37,0,0,0-.18,0,4.9,4.9,0,1,1-.66-9.75Z"/><path class="cls-1" d="M22.28,23.61a1.86,1.86,0,0,0-.39-1.15h.35a1.89,1.89,0,0,0,1.88-2,1.94,1.94,0,0,0-2-1.76H12.67l2.15-2.16a1.87,1.87,0,0,0-.1-2.76,2,2,0,0,0-2.62.14,16.35,16.35,0,0,1-4.23,3v-.58A.37.37,0,0,0,7.5,16H.38a.38.38,0,0,0-.37.37s0,1.46,0,14.84a.37.37,0,0,0,.37.37H7.5a.36.36,0,0,0,.37-.37V29.76a4.21,4.21,0,0,0,3.47,1.82h7.82A1.89,1.89,0,0,0,21,29.69a1.84,1.84,0,0,0-.52-1.3,1.89,1.89,0,0,0,.62-3A1.9,1.9,0,0,0,22.28,23.61ZM20.4,24.76H14.57a.37.37,0,0,0,0,.74h5.21a1.15,1.15,0,0,1,0,2.3H14a.37.37,0,0,0-.37.37.38.38,0,0,0,.37.37h5.15a1.15,1.15,0,0,1,0,2.3H11.34a3.47,3.47,0,0,1-3.47-3.46A.37.37,0,0,0,7.5,27a.38.38,0,0,0-.37.37v3.46H.76V16.74H7.13v.79h0s0,4.15-1.81,5.67a.37.37,0,1,0,.48.57c1.84-1.54,2.05-5.06,2.07-6a17,17,0,0,0,4.75-3.34,1.22,1.22,0,0,1,1.62-.11A1.14,1.14,0,0,1,14.3,16l-2.79,2.79a.37.37,0,0,0,.26.63H22.15a1.21,1.21,0,0,1,1.23,1.07,1.14,1.14,0,0,1-1.14,1.23H15.13a.38.38,0,0,0-.37.37.37.37,0,0,0,.37.37H20.4a1.15,1.15,0,0,1,0,2.3Z"/><path class="cls-1" d="M18.42,14.49l-1.89,2.66a.39.39,0,0,0,0,.45.37.37,0,0,0,.42.11l5-1.9a7.93,7.93,0,1,0-3.55-1.32ZM22.83.74A7.19,7.19,0,1,1,22,15.06a.37.37,0,0,0-.18,0l-3.95,1.51,1.41-2a.37.37,0,0,0-.11-.53A7.19,7.19,0,0,1,22.83.74Z"/><path class="cls-1" d="M18.9,6h7.64a.38.38,0,0,0,.37-.37.37.37,0,0,0-.37-.37H18.9a.36.36,0,0,0-.37.37A.37.37,0,0,0,18.9,6Z"/><path class="cls-1" d="M18.9,8.11h7.64a.37.37,0,0,0,.37-.37.38.38,0,0,0-.37-.37H18.9a.37.37,0,0,0-.37.37A.36.36,0,0,0,18.9,8.11Z"/><path class="cls-1" d="M2.87,5.66h6a.36.36,0,0,0,.37-.37.37.37,0,0,0-.37-.37h-6a.38.38,0,0,0-.37.37A.37.37,0,0,0,2.87,5.66Z"/><path class="cls-1" d="M2.87,7.35h6A.37.37,0,0,0,9.22,7a.36.36,0,0,0-.37-.37h-6A.37.37,0,0,0,2.5,7,.38.38,0,0,0,2.87,7.35Z"/></g></g></svg>