<svg xmlns="http://www.w3.org/2000/svg" viewBox="0 0 21.3 30.63"><defs><style>.cls-1{fill:#4f4f4f;}</style></defs><title>Asset 6</title><g id="Layer_2" data-name="Layer 2"><g id="Layer_1-2" data-name="Layer 1"><path class="cls-1" d="M15,28.73H7.28a.51.51,0,0,1-.5-.5V23.58A7.06,7.06,0,0,0,5.51,20a10.63,10.63,0,1,1,10.9-.37,8,8,0,0,0-.88,3.79v4.84A.5.5,0,0,1,15,28.73Zm-7.25-1h6.75V23.39a8.74,8.74,0,0,1,1-4.31.55.55,0,0,1,.2-.25,9.63,9.63,0,1,0-9.67.32.46.46,0,0,1,.17.14,8,8,0,0,1,1.52,4.29Z"/><path class="cls-1" d="M14.68,24.17H7.52a.5.5,0,0,1-.5-.5.5.5,0,0,1,.5-.5h7.16a.5.5,0,0,1,.5.5A.5.5,0,0,1,14.68,24.17Z"/><path class="cls-1" d="M11.09,24.17a.5.5,0,0,1-.5-.5V12.28l-1.75,0a1,1,0,0,1-1.07-.57c-.3-.7.41-1.52,1-2.08A1.94,1.94,0,0,1,10.24,9a1.83,1.83,0,0,1,1.25.72.53.53,0,0,1,.1.29v1.24l2,0h0a.5.5,0,0,1,.5.5.5.5,0,0,1-.5.5l-2,0v11.4a.51.51,0,0,1-.5.51ZM8.72,11.32h.1l1.77,0V10.22a.73.73,0,0,0-.43-.21,1,1,0,0,0-.71.37A2.91,2.91,0,0,0,8.72,11.32Z"/><path class="cls-1" d="M12.33,30.63H9.88a.5.5,0,0,1-.5-.5v-1.9a.5.5,0,0,1,.5-.5.5.5,0,0,1,.5.5v1.4h1.45v-1.4a.5.5,0,0,1,.5-.5.5.5,0,0,1,.5.5v1.9A.5.5,0,0,1,12.33,30.63Z"/></g></g></svg>