<svg xmlns="http://www.w3.org/2000/svg" viewBox="0 0 45.5 25.75"><defs><style>.cls-1{fill:#4f4f4f;}</style></defs><title>Asset 8</title><g id="Layer_2" data-name="Layer 2"><g id="Layer_1-2" data-name="Layer 1"><path class="cls-1" d="M27.75,6a7.36,7.36,0,0,1-.63,2.85,8.1,8.1,0,0,1-1.73,2.6,4.15,4.15,0,0,1-2.31,1.24,3.48,3.48,0,0,1-2.49-.8A7.2,7.2,0,0,1,18.7,9.56a8.42,8.42,0,0,1-.93-2.86,5.1,5.1,0,0,1,2.56-5.08A5,5,0,0,1,27.75,6a.51.51,0,0,0,1,0A6,6,0,0,0,19,1.28a6.16,6.16,0,0,0-1.92,2.61,6.37,6.37,0,0,0-.29,3.24,9.19,9.19,0,0,0,1.08,3.05,8,8,0,0,0,2,2.47,4.62,4.62,0,0,0,2.81,1.07,4.56,4.56,0,0,0,2.82-1.07,8.93,8.93,0,0,0,3.1-5.52A7.06,7.06,0,0,0,28.76,6,.51.51,0,0,0,27.75,6Z"/><path class="cls-1" d="M33.29,20.84v4.41l.51-.5H11.7l.5.5V21.66a11.22,11.22,0,0,1,.05-1.54,5.16,5.16,0,0,1,4.19-4.35,11.93,11.93,0,0,1,2.24-.08l-.43-.25,4,5.47.07.1a.51.51,0,0,0,.87,0l4-5.49.06-.08-.43.25h1.39a5.08,5.08,0,0,1,2.57.72,5.18,5.18,0,0,1,2.51,4.43.51.51,0,0,0,1,0,6.16,6.16,0,0,0-6.21-6.16h-1a.74.74,0,0,0-.72.28l-4,5.53h.86l-4-5.47a.66.66,0,0,0-.54-.35h-1a6.76,6.76,0,0,0-2.77.52,6.2,6.2,0,0,0-3.67,5.11c-.08.84,0,1.7,0,2.55v2.39a.5.5,0,0,0,.51.5H33.8a.5.5,0,0,0,.5-.5V20.84A.51.51,0,0,0,33.29,20.84Z"/><path class="cls-1" d="M40.19,8.41a6.14,6.14,0,0,1-.8,2.83,4.83,4.83,0,0,1-2,2.06,2.31,2.31,0,0,1-1.21.19c.09,0-.09,0-.08,0l-.17,0a2,2,0,0,1-.32-.1A3.12,3.12,0,0,1,35,13a5.53,5.53,0,0,1-1.83-2.35,5.1,5.1,0,0,1-.47-2.84,3.78,3.78,0,0,1,6.82-1.58,3.77,3.77,0,0,1,.68,2.17.51.51,0,0,0,1,0,4.78,4.78,0,0,0-9.32-1.48c-.71,2.08.23,4.54,1.63,6.11A4.16,4.16,0,0,0,36.2,14.5,3.75,3.75,0,0,0,39,13.39a7.07,7.07,0,0,0,2.22-5A.51.51,0,0,0,40.19,8.41Z"/><path class="cls-1" d="M36.87,20.1,40,15.78l-.43.25a7.89,7.89,0,0,1,2.06.14,3.94,3.94,0,0,1,2.29,1.73,4.15,4.15,0,0,1,.56,2.2v3.24l.5-.51H36.44a.51.51,0,0,0,0,1H45a.51.51,0,0,0,.51-.5V20A5,5,0,0,0,42,15.23,8.15,8.15,0,0,0,39.62,15c-.28,0-.42.18-.57.38l-.4.55L36.2,19.32l-.2.28a.51.51,0,0,0,.18.69.52.52,0,0,0,.69-.19Z"/><path class="cls-1" d="M12.84,8.41a6,6,0,0,1-.8,2.83,4.83,4.83,0,0,1-2,2.06,2.31,2.31,0,0,1-1.21.19c.09,0-.09,0-.08,0l-.17,0a2,2,0,0,1-.32-.1A3.12,3.12,0,0,1,7.64,13a5.53,5.53,0,0,1-1.83-2.35,5.1,5.1,0,0,1-.47-2.84,3.78,3.78,0,0,1,6.82-1.58,3.77,3.77,0,0,1,.68,2.17.51.51,0,0,0,1,0A4.78,4.78,0,0,0,4.53,6.93C3.82,9,4.76,11.47,6.16,13A4.16,4.16,0,0,0,8.85,14.5a3.75,3.75,0,0,0,2.78-1.11,7.07,7.07,0,0,0,2.22-5A.51.51,0,0,0,12.84,8.41Z"/><path class="cls-1" d="M9.09,22.83H.5l.51.51V20a4,4,0,0,1,3.36-3.9,10,10,0,0,1,1.55,0l-.44-.25L8.65,20.1a.5.5,0,1,0,.87-.5l-2-2.78-1-1.41c-.15-.2-.28-.39-.56-.39H5a5,5,0,0,0-4.79,3.6,7.38,7.38,0,0,0-.17,2v2.73a.51.51,0,0,0,.5.5H9.09a.51.51,0,0,0,0-1Z"/></g></g></svg>