<svg xmlns="http://www.w3.org/2000/svg" viewBox="0 0 32.84 32.84"><defs><style>.cls-1{fill:none;stroke:#4f4f4f;stroke-miterlimit:10;}.cls-2{fill:#4f4f4f;}</style></defs><title>Asset 9</title><g id="Layer_2" data-name="Layer 2"><g id="Layer_1-2" data-name="Layer 1"><path class="cls-1" d="M17.75,17.08A8.65,8.65,0,0,0,11.84,8.9a4.65,4.65,0,1,0-5.43,0A8.64,8.64,0,0,0,.5,17.08v.67H17.75Z"/><path class="cls-1" d="M26.43,23.5a4.65,4.65,0,1,0-5.43,0,8.64,8.64,0,0,0-5.91,8.18v.66H32.34v-.66A8.63,8.63,0,0,0,26.43,23.5Z"/><polygon class="cls-2" points="12.36 27.7 8.93 24.26 8.34 24.85 10.78 27.28 5.56 27.28 5.56 20.65 4.73 20.65 4.73 28.11 10.78 28.11 8.34 30.54 8.93 31.13 12.36 27.7"/><polygon class="cls-2" points="16.5 5.14 19.93 8.58 20.52 7.99 18.08 5.56 23.3 5.56 23.3 12.19 24.13 12.19 24.13 4.73 18.08 4.73 20.52 2.3 19.93 1.71 16.5 5.14"/></g></g></svg>