<svg xmlns="http://www.w3.org/2000/svg" viewBox="0 0 25.61 32.31"><defs><style>.cls-1{fill:none;stroke:#4f4f4f;stroke-miterlimit:10;}</style></defs><title>Asset 10</title><g id="Layer_2" data-name="Layer 2"><g id="Layer_1-2" data-name="Layer 1"><path class="cls-1" d="M1.46,5.67A15.06,15.06,0,0,1,11.8.53,15,15,0,0,1,22.91,4.64"/><path class="cls-1" d="M.46,11.81c.68-1.12,4.62-7.47,11.3-8,6.92-.58,11.43,5.44,12.16,6.44"/><path class="cls-1" d="M.71,16.07a14.88,14.88,0,0,0,2.45-2.31c1.26-1.49,1.42-2.3,2.25-3.37A9.76,9.76,0,0,1,10.6,7.11a9.87,9.87,0,0,1,7.49,1.37,9.54,9.54,0,0,1,4.06,7.45c.05,2.75-1.42,3.87-.83,6.41a7.41,7.41,0,0,0,2.3,3.72"/><path class="cls-1" d="M.61,20.67A18,18,0,0,0,5,16.36c1.59-2.24,1.73-3.6,3.52-4.89a6.82,6.82,0,0,1,4.26-1.36,6.76,6.76,0,0,1,5.23,3c2.38,3.75-1.39,7.78.93,12.24A8.38,8.38,0,0,0,21.8,28.4"/><path class="cls-1" d="M.27,25A26.9,26.9,0,0,0,8.2,17.44c1.12-1.68,2.1-3.62,4-3.87a3.7,3.7,0,0,1,3.62,1.86c.5,1,.3,2.34-.84,4.46-2.4,4.45-6.6,8-10.18,10.48"/><path class="cls-1" d="M1.49,28.41A39.76,39.76,0,0,0,9,21.89,38.13,38.13,0,0,0,12.75,17"/><path class="cls-1" d="M23.92,12.4a14.39,14.39,0,0,1,.44,10.33"/><path class="cls-1" d="M15.35,24a5.49,5.49,0,0,0-.25,3.53,5.61,5.61,0,0,0,2.74,3.37"/><path class="cls-1" d="M7.86,31.39A9.79,9.79,0,0,1,9.57,30c.93-.57,1.54-1,2.21-.88,1,.13,1.86,1.41,2.2,3.08"/></g></g></svg>