<svg xmlns="http://www.w3.org/2000/svg" viewBox="0 0 37.76 37.76"><defs><style>.cls-1{fill:none;stroke:#4f4f4f;stroke-linejoin:round;}</style></defs><title>Asset 11</title><g id="Layer_2" data-name="Layer 2"><g id="Layer_1-2" data-name="Layer 1"><path class="cls-1" d="M4.57,33.19,37.1.66Z"/><path class="cls-1" d="M11,33.19h0Z"/><path class="cls-1" d="M15.47,37.26h0Z"/><path class="cls-1" d="M8.64,29.12h0Z"/><polygon class="cls-1" points="12.7 25.05 12.7 25.06 33.4 25.06 12.7 25.05"/><polygon class="cls-1" points="16.77 20.99 16.77 20.99 34.83 20.99 16.77 20.99"/><polygon class="cls-1" points="20.83 16.92 20.84 16.92 35.88 16.92 20.83 16.92"/><polygon class="cls-1" points="24.9 12.86 24.9 12.86 36.65 12.86 24.9 12.86"/><polygon class="cls-1" points="28.97 8.79 28.97 8.79 37.09 8.79 28.97 8.79"/><polygon class="cls-1" points="33.03 4.72 33.03 4.72 37.26 4.72 33.03 4.72"/><polygon class="cls-1" points="35.06 2.69 35.07 2.69 37.22 2.69 35.06 2.69"/><path class="cls-1" d="M4.57,26.76v0Z"/><path class="cls-1" d="M.5,22.29v0Z"/><path class="cls-1" d="M8.63,29.12v0Z"/><polygon class="cls-1" points="12.7 25.05 12.7 25.05 12.7 4.35 12.7 25.05"/><polygon class="cls-1" points="16.77 20.99 16.77 20.98 16.77 2.93 16.77 20.99"/><polygon class="cls-1" points="20.83 16.92 20.83 16.92 20.83 1.87 20.83 16.92"/><polygon class="cls-1" points="24.9 12.86 24.9 12.85 24.9 1.1 24.9 12.86"/><polygon class="cls-1" points="28.97 8.79 28.97 8.79 28.97 0.67 28.97 8.79"/><polygon class="cls-1" points="33.03 4.72 33.03 4.72 33.03 0.5 33.03 4.72"/><polygon class="cls-1" points="35.06 2.69 35.06 2.69 35.06 0.54 35.06 2.69"/></g></g></svg>