<svg xmlns="http://www.w3.org/2000/svg" viewBox="0 0 26.12 34.35"><defs><style>.cls-1{fill:#4f4f4f;}</style></defs><title>Asset 12</title><g id="Layer_2" data-name="Layer 2"><g id="Layer_1-2" data-name="Layer 1"><path class="cls-1" d="M25.6,13.07H23.66V7.22a.58.58,0,0,0,0-.18V7L21,1.91a.51.51,0,0,0-.69-.22.58.58,0,0,0-.22.22L17.41,7a.59.59,0,0,0-.05.23v5.85H14.88V11.45a.51.51,0,0,0-1,0v1.62h-1.6V7.89a.7.7,0,0,0-.06-.19l0-.08-.08-.07,0-.07a1.91,1.91,0,0,1-.89-1.58C11.14,4.3,12.33,1,13.06,1S15,4.3,15,5.9a1.9,1.9,0,0,1-1.08,1.69V9.32a.5.5,0,0,0,.48.36.51.51,0,0,0,.51-.52v-1A3,3,0,0,0,16,5.9C16,4.77,15,0,13.06,0s-2.94,4.75-2.94,5.9a3,3,0,0,0,1.11,2.3v4.87H7.87V5.9a.52.52,0,1,0-1,0v7.17H2.48V12h0V11h0V9.76h0v-1h0v-1h0v-1h0V5.45h0v-1h0V2.64H6.84V4.06a.52.52,0,0,0,1,0V2.13a.52.52,0,0,0-.52-.52H2a.52.52,0,0,0-.52.52V13.07H.51a.51.51,0,0,0-.51.51V16.5A.51.51,0,0,0,.51,17h.72V30.77a3.58,3.58,0,0,0,3.59,3.58H21.3a3.58,3.58,0,0,0,3.58-3.58V17h.72a.51.51,0,0,0,.52-.51V13.58A.51.51,0,0,0,25.6,13.07ZM18.38,7.35l2.13-4.1,1.77,3.46h-.56v1h.91v5.12H21.55v-.38h-1v.4H18.38ZM25.1,16H5.68a.51.51,0,1,0,0,1H23.86V30.77a2.56,2.56,0,0,1-2.56,2.56H4.82a2.56,2.56,0,0,1-2.56-2.56V17h.43a.51.51,0,1,0,0-1H1v-1.9H25.1Z"/></g></g></svg>