<svg xmlns="http://www.w3.org/2000/svg" viewBox="0 0 41.39 33.88"><defs><style>.cls-1{fill:#4f4f4f;}.cls-2{fill:none;stroke:#4f4f4f;stroke-miterlimit:10;}</style></defs><title>Asset 13</title><g id="Layer_2" data-name="Layer 2"><g id="Layer_1-2" data-name="Layer 1"><g id="Y36Pg5.tif"><path class="cls-1" d="M8.58,6.31c.26.85.52,1.69.79,2.54a4.12,4.12,0,0,1,0,2.77c-.64,1.71-.05,3.29.64,4.89H12V23a2.77,2.77,0,0,0-1.57,2c-.17.53-.28,1.09-.45,1.62-.1.32-.22.63-.35.94h1a11.37,11.37,0,0,1,1.2-3.37l.23,0V25h.8v-.73l.28,0c.78.93.79,2.18,1.25,3.37h.93c-.23-.76-.46-1.53-.68-2.3A3,3,0,0,0,13,23V16.47h2a5.67,5.67,0,0,0,.8-4.64,4.92,4.92,0,0,1,.09-3.62c.26-.78.53-1.57.73-2.37.31-1.31,0-1.84-1.26-2.33L14.08,3C14,2.57,14,2.26,13.9,1.92L13,1.71V.93l.85-.25L13.73,0H11.29L11.2.69l.86.26c0,.26,0,.51,0,.74l-.89.25C11.07,2.3,11,2.61,11,3l-.79.35c-.27.12-.55.2-.82.33a1.43,1.43,0,0,0-.95,1.78A6.28,6.28,0,0,0,8.58,6.31ZM12,2.72h1.09c.22,1.5,1.81,1.3,2.75,2A3.74,3.74,0,0,1,15.23,7c-.51.79-1.34.36-2.09.42,0,.22-.06.4-.12.73l1.8.29c0,.19-.07.41-.12.63a4.42,4.42,0,0,0,.16,2.78,4.87,4.87,0,0,1-.35,3.73h-4a5,5,0,0,1-.31-4c.37-.93.35-1,0-3.2a9.28,9.28,0,0,0,.93-.06A7.71,7.71,0,0,0,12,8.07V7.45a1.56,1.56,0,0,0-.54-.06c-1.1.25-1.69-.06-2-1.38-.09-.37-.14-.75-.22-1.12C10,4,11.71,4.29,12,2.72Z"/><path class="cls-1" d="M19.23,27.56V22h5.86v5.61h1.15V22h5.87v5.58H33V14.06H29.59V7.36a29.71,29.71,0,0,0-7.83,0v6.74H18.38c0,.45-.11.82-.11,1.19q0,5.87,0,11.73c0,.18,0,.38,0,.58ZM32.09,15v5.86H26.22V15ZM22.72,8h5.91v5.9H22.72Zm-3.49,7h5.9v5.89h-5.9Z"/></g><rect class="cls-2" x="0.5" y="27.56" width="40.39" height="5.82"/></g></g></svg>