<svg xmlns="http://www.w3.org/2000/svg" viewBox="0 0 28.05 35.1"><defs><style>.cls-1{fill:none;stroke:#4f4f4f;stroke-miterlimit:10;stroke-width:0.75px;}</style></defs><title>Asset 15</title><g id="Layer_2" data-name="Layer 2"><g id="Layer_1-2" data-name="Layer 1"><path class="cls-1" d="M25.33,2.72A8,8,0,0,0,11.67,8.38a8.53,8.53,0,0,0,.19,1.75L1,23.42a2.49,2.49,0,0,0-.17,2.82,3.11,3.11,0,0,0,.59,4c1.57,1.57,4.4,1.9,7.2-.89,1.61-1.62,4-2.55,5.31-1.2,1,1,1,3.05-1.23,5.28a.76.76,0,0,0,0,1.08.78.78,0,0,0,.54.23.74.74,0,0,0,.54-.23c3-3,2.73-5.94,1.23-7.44a4,4,0,0,0-3.38-1,7.34,7.34,0,0,0-4.1,2.24c-2.18,2.19-4.07,1.85-5,.9A1.72,1.72,0,0,1,2,27.38a2.51,2.51,0,0,0,1.33.38,2.37,2.37,0,0,0,1.52-.53l13.47-11a7.64,7.64,0,0,0,1.36.12,8,8,0,0,0,8-8,8,8,0,0,0-2.34-5.66Z"/><path class="cls-1" d="M24,4.87a5,5,0,0,1,.65,3.51A5.79,5.79,0,0,1,23,12.22,7,7,0,0,1,20,13.54"/></g></g></svg>