<svg xmlns="http://www.w3.org/2000/svg" viewBox="0 0 29.29 29.29"><defs><style>.cls-1{fill:none;stroke:#4f4f4f;stroke-miterlimit:10;stroke-width:0.75px;}</style></defs><title>Asset 17</title><g id="Layer_2" data-name="Layer 2"><g id="Layer_1-2" data-name="Layer 1"><polygon class="cls-1" points="26.36 0.69 28.6 2.92 26.5 5.02 24.27 2.79 26.36 0.69"/><path class="cls-1" d="M23.35,3.7l2.24,2.24L23.93,7.59a11.54,11.54,0,0,0-2.24-2.23Z"/><polygon class="cls-1" points="1.02 28.26 2.48 25.02 4.27 26.83 1.02 28.26"/><path class="cls-1" d="M5.39,26.12,3.16,23.89,17.5,9.56a6,6,0,0,1,2.24,2.24Z"/><path class="cls-1" d="M28.91,15.29a.65.65,0,0,1-.65.65H25.49a.66.66,0,0,0-.65.53,10.22,10.22,0,0,1-1.63,4,.65.65,0,0,0,.08.82l1.81,1.81a.66.66,0,0,1,0,.92l-1.38,1.39a.64.64,0,0,1-.91,0h0l-1.88-1.88a.65.65,0,0,0-.8-.09,10.22,10.22,0,0,1-3.65,1.4.66.66,0,0,0-.53.65v2.76a.65.65,0,0,1-.65.65H13.35a.65.65,0,0,1-.65-.65V25.35a.65.65,0,0,0-.5-.65,10.34,10.34,0,0,1-2.56-1l2.41-2.43A7.13,7.13,0,1,0,8,17.24l-2.44,2.4a10.09,10.09,0,0,1-1.13-3.17.66.66,0,0,0-.65-.53H1a.65.65,0,0,1-.64-.65V14A.65.65,0,0,1,1,13.35H3.8a.65.65,0,0,0,.65-.54,10.17,10.17,0,0,1,1.4-3.64.65.65,0,0,0-.09-.8L3.55,6.16a.65.65,0,0,1,0-.91L4.92,3.86a.65.65,0,0,1,.91,0h0L8,6a.65.65,0,0,0,.82.08,10.28,10.28,0,0,1,3.42-1.51.65.65,0,0,0,.49-.65V1a.65.65,0,0,1,.65-.64h2A.65.65,0,0,1,16,1V3.8a.65.65,0,0,0,.53.65,10.38,10.38,0,0,1,8.37,8.36.65.65,0,0,0,.65.54h2.76a.65.65,0,0,1,.65.65Z"/></g></g></svg>