<svg xmlns="http://www.w3.org/2000/svg" viewBox="0 0 18.44 33.22"><defs><style>.cls-1{fill:#4f4f4f;}</style></defs><title>Asset 18</title><g id="Layer_2" data-name="Layer 2"><g id="Layer_1-2" data-name="Layer 1"><path class="cls-1" d="M11.31,33.22a.35.35,0,0,0,.35-.35v-3a5.55,5.55,0,0,1,.15-1.29l.75-3.37a7,7,0,0,0,.15-1.44V20.34a1.45,1.45,0,0,0-1.17-1.44h0a1.44,1.44,0,0,0-.74.07l-.18.08V12.48l.07,0a3.5,3.5,0,1,0-3,0l.08,0V17l-.19-.07a1.38,1.38,0,0,0-1.86,1l0,.15L5.58,18a1.37,1.37,0,0,0-.8-.1,1.43,1.43,0,0,0-1.12,1l0,.16L3.48,19a1.42,1.42,0,0,0-.79-.09,1.45,1.45,0,0,0-1.17,1.44V23.7a6.63,6.63,0,0,0,.19,1.61L2.39,28a6.3,6.3,0,0,1,.17,1.44v3.42a.36.36,0,0,0,.36.35.35.35,0,0,0,.35-.35V29.45a6.83,6.83,0,0,0-.19-1.62L2.4,25.14a5.79,5.79,0,0,1-.17-1.44V20.34a.74.74,0,0,1,.57-.74.69.69,0,0,1,.57.15.73.73,0,0,1,.24.53.36.36,0,1,0,.71,0v-1a.75.75,0,0,1,.58-.74.7.7,0,0,1,.57.15.73.73,0,0,1,.24.53.36.36,0,1,0,.71,0v-1A.74.74,0,0,1,7,17.5a.68.68,0,0,1,.57.16.67.67,0,0,1,.25.52.36.36,0,1,0,.71,0V9.33a.73.73,0,0,1,.57-.74.7.7,0,0,1,.82.68v11a.36.36,0,1,0,.71,0,.68.68,0,0,1,.69-.69h.12a.74.74,0,0,1,.57.74v3.45a5.52,5.52,0,0,1-.14,1.28l-.75,3.38A7,7,0,0,0,11,29.89v3A.36.36,0,0,0,11.31,33.22Zm-1.19-25A1.42,1.42,0,0,0,9,7.88,1.45,1.45,0,0,0,7.81,9.33V11.7l-.22-.16a2.79,2.79,0,1,1,3.24,0l-.21.16V9.27A1.4,1.4,0,0,0,10.12,8.2Z"/><path class="cls-1" d="M.19,7.14A9.58,9.58,0,0,0,0,8.21a.35.35,0,0,0,.32.39.35.35,0,0,0,.39-.31,8.54,8.54,0,0,1,.17-1,.35.35,0,0,0-.26-.42A.35.35,0,0,0,.19,7.14Z"/><path class="cls-1" d="M16.75,4.16a.3.3,0,0,0-.18.06.36.36,0,0,0-.12.49,6.83,6.83,0,0,1,.49.88h0a.36.36,0,0,0,.47.16.37.37,0,0,0,.19-.2.36.36,0,0,0,0-.27,9.81,9.81,0,0,0-.52-1A.37.37,0,0,0,16.75,4.16Z"/><path class="cls-1" d="M4.14,2.38a.36.36,0,0,0-.21-.64.37.37,0,0,0-.21.06c-.29.22-.57.45-.84.7a.36.36,0,0,0,0,.5.37.37,0,0,0,.51,0A7.92,7.92,0,0,1,4.14,2.38Z"/><path class="cls-1" d="M1.57,5.42a9.34,9.34,0,0,1,.5-.87A.36.36,0,0,0,1.78,4a.34.34,0,0,0-.3.16,8,8,0,0,0-.55.94.36.36,0,0,0,0,.27.37.37,0,0,0,.18.21h0A.37.37,0,0,0,1.57,5.42Z"/><path class="cls-1" d="M17.58,7.48h0a8.46,8.46,0,0,1,.15,1,.36.36,0,0,0,.36.33h0a.36.36,0,0,0,.32-.39,7.67,7.67,0,0,0-.16-1.07.38.38,0,0,0-.15-.23.36.36,0,0,0-.2-.06h-.07a.38.38,0,0,0-.23.16A.34.34,0,0,0,17.58,7.48Z"/><path class="cls-1" d="M12,.42a.37.37,0,0,0-.45.24.37.37,0,0,0,0,.27.36.36,0,0,0,.21.17,8.11,8.11,0,0,1,.93.36.36.36,0,0,0,.47-.18.32.32,0,0,0,0-.27A.35.35,0,0,0,13,.81,8.94,8.94,0,0,0,12,.42Z"/><path class="cls-1" d="M8.43.38A.34.34,0,0,0,8.8.72h.41l.6,0h0A.37.37,0,0,0,10.19.4.37.37,0,0,0,9.86,0,9.93,9.93,0,0,0,8.77,0,.36.36,0,0,0,8.43.38Z"/><path class="cls-1" d="M5.41.92a.45.45,0,0,0,0,.28.36.36,0,0,0,.47.18,8.22,8.22,0,0,1,1-.33A.39.39,0,0,0,7,.88a.42.42,0,0,0,0-.27A.36.36,0,0,0,6.9.4.37.37,0,0,0,6.73.35l-.1,0a8.42,8.42,0,0,0-1,.36A.39.39,0,0,0,5.41.92Z"/><path class="cls-1" d="M15.69,2.64a8.85,8.85,0,0,0-.82-.71.35.35,0,0,0-.22-.08h0a.36.36,0,0,0-.18.63,8.18,8.18,0,0,1,.76.66.36.36,0,0,0,.61-.26A.34.34,0,0,0,15.69,2.64Z"/><path class="cls-1" d="M0,10.38A9.58,9.58,0,0,0,.2,11.45a.35.35,0,0,0,.35.27H.63a.34.34,0,0,0,.26-.42,8.21,8.21,0,0,1-.18-1A.36.36,0,0,0,.36,10h0a.32.32,0,0,0-.24.13A.35.35,0,0,0,0,10.38Z"/><path class="cls-1" d="M14,16.79a.35.35,0,0,0,.49.09,7.93,7.93,0,0,0,.86-.67.36.36,0,0,0,0-.5.35.35,0,0,0-.5,0,8,8,0,0,1-.79.62A.35.35,0,0,0,14,16.79Z"/><path class="cls-1" d="M17.06,13.14l-.1,0a.33.33,0,0,0-.21.17,7.52,7.52,0,0,1-.53.85.36.36,0,0,0,.09.5.35.35,0,0,0,.49-.09,10,10,0,0,0,.57-.92.35.35,0,0,0-.14-.48A.34.34,0,0,0,17.06,13.14Z"/><path class="cls-1" d="M2.92,16.08a9.65,9.65,0,0,0,.84.69.36.36,0,1,0,.42-.58,7.79,7.79,0,0,1-.78-.64.36.36,0,0,0-.24-.09.36.36,0,0,0-.24.62Z"/><path class="cls-1" d="M12.23,17.28a.36.36,0,0,0,.25.67l.08,0a.44.44,0,0,0,.22-.2.36.36,0,0,0-.45-.48Z"/><path class="cls-1" d="M1.38,13l-.11,0a.32.32,0,0,0-.16,0,.36.36,0,0,0-.15.48,8.21,8.21,0,0,0,.55.94.36.36,0,0,0,.49.09.34.34,0,0,0,.15-.22.36.36,0,0,0,0-.27,7.61,7.61,0,0,1-.51-.87A.39.39,0,0,0,1.38,13Z"/><path class="cls-1" d="M17.49,11.47a.35.35,0,0,0,.25.43.36.36,0,0,0,.43-.25,9.66,9.66,0,0,0,.22-1.07.36.36,0,0,0-.3-.4H18a.35.35,0,0,0-.35.31C17.64,10.81,17.57,11.15,17.49,11.47Z"/><path class="cls-1" d="M12.54,15a6.66,6.66,0,1,0-6.65,0,.38.38,0,0,0,.49-.13.37.37,0,0,0-.13-.49,5.94,5.94,0,1,1,5.93,0,.36.36,0,0,0-.16.22.32.32,0,0,0,0,.27A.36.36,0,0,0,12.54,15Z"/></g></g></svg>