<svg xmlns="http://www.w3.org/2000/svg" viewBox="0 0 41.3 31.45"><defs><style>.cls-1{fill:none;stroke:#4f4f4f;stroke-miterlimit:10;stroke-width:0.75px;}</style></defs><title>Asset 19</title><g id="Layer_2" data-name="Layer 2"><g id="Layer_1-2" data-name="Layer 1"><path class="cls-1" d="M9.58,23.09a4,4,0,1,0,4,4,4,4,0,0,0-4-4Zm0,5.32a1.33,1.33,0,1,1,1.33-1.33,1.33,1.33,0,0,1-1.33,1.33Z"/><path class="cls-1" d="M32,23.09a4,4,0,1,0,4,4,4,4,0,0,0-4-4Zm0,5.32a1.33,1.33,0,1,1,1.32-1.33A1.32,1.32,0,0,1,32,28.41Z"/><path class="cls-1" d="M40.13,22.6h-.28V12.69a2.78,2.78,0,0,0-.49-1.47l-4.53-6a1.87,1.87,0,0,0-1.31-.65H26.14V1.2a.81.81,0,0,0-.81-.82H4.88A3.27,3.27,0,0,0,1.6,3.65v19H1.18a.8.8,0,0,0-.8.8v2.87a.81.81,0,0,0,.81.81H4a5.6,5.6,0,0,1,11.19,0H26.4a5.6,5.6,0,0,1,11.19,0h2.52a.82.82,0,0,0,.82-.81V23.4a.8.8,0,0,0-.8-.8ZM28.22,12.49V7.71h3.41a1.74,1.74,0,0,1,1.24.62l3.05,4.16Z"/></g></g></svg>