<svg xmlns="http://www.w3.org/2000/svg" viewBox="0 0 78.18 19.72"><defs><style>.cls-1{fill:none;stroke:#fff;stroke-miterlimit:10;stroke-width:3px;}.cls-2{fill:#fff;}</style></defs><title>Asset 3</title><g id="Layer_2" data-name="Layer 2"><g id="Layer_1-2" data-name="Layer 1"><polyline class="cls-1" points="30.51 0.01 30.52 9.55 30.54 19.53"/><line class="cls-1" x1="41.36" y1="9.75" x2="30.52" y2="9.55"/><line class="cls-1" x1="41.36" y1="0.02" x2="41.33" y2="19.72"/><line class="cls-1" x1="52.22" y1="1.52" x2="63.1" y2="1.52"/><line class="cls-1" x1="57.61" y1="19.24" x2="57.66" y2="1.53"/><polyline class="cls-1" points="78.11 1.52 68.08 1.52 68.08 18.18 78.18 18.18"/><line class="cls-1" x1="78.11" y1="9.15" x2="68.07" y2="9.15"/><line class="cls-1" x1="48.34" y1="0.05" x2="48.34" y2="13.54"/><circle class="cls-2" cx="48.34" cy="18.02" r="1.58"/><path class="cls-2" d="M0,0,3.26,0,8.12,12.2,13.52.89l5.14,10.73L23.52,0h2.95l-8,19.56L13.58,8.34l-5.08,11Z"/></g></g></svg>