<?xml version="1.0" encoding="utf-8"?>
<!-- Generator: Adobe Illustrator 23.0.1, SVG Export Plug-In . SVG Version: 6.00 Build 0)  -->
<svg version="1.1" id="Layer_1" xmlns="http://www.w3.org/2000/svg" xmlns:xlink="http://www.w3.org/1999/xlink" x="0px" y="0px"
	 viewBox="0 0 100 100" style="enable-background:new 0 0 100 100;" xml:space="preserve">
<style type="text/css">
	.st0{fill:#BE9441;}
</style>
<g>
	<path class="st0" d="M83.2,29.5C83.2,29.5,83.1,29.5,83.2,29.5c0-0.1,0-0.1,0-0.1c0-0.1-0.1-0.1-0.1-0.2c0,0,0,0,0,0c0,0,0,0,0,0
		c-0.1-0.1-0.1-0.1-0.2-0.1L81,28.3l-1.6-3.8c-0.1-0.2-0.2-0.3-0.3-0.3l-3.8-1.6l-1.6-3.8c-0.1-0.2-0.2-0.3-0.3-0.3l-3.8-1.6
		l-0.8-1.8c0,0,0,0,0,0c0-0.1-0.1-0.1-0.1-0.2c0,0,0,0,0,0c0,0,0,0,0,0c-0.1,0-0.1-0.1-0.2-0.1c0,0,0,0-0.1,0c0,0,0,0-0.1,0
		c0,0,0,0-0.1,0c0,0-0.1,0-0.1,0c-0.1,0-0.1,0-0.2,0c0,0-0.1,0-0.1,0c0,0-0.1,0-0.1,0.1c0,0-0.1,0-0.1,0c0,0,0,0,0,0l-3.7,3.7
		c0,0,0,0,0,0c0,0,0,0.1-0.1,0.1c0,0,0,0,0,0.1c0,0,0,0.1,0,0.1c0,0,0,0.1,0,0.1c0,0,0,0.1,0,0.1c0,0,0,0.1,0,0.1c0,0,0,0.1,0,0.1
		l0.9,2c0.1,0.2,0.2,0.3,0.3,0.4l3.8,1.6l1.6,3.8c0.1,0.2,0.2,0.3,0.3,0.3l3.8,1.6l1.6,3.8c0.1,0.2,0.2,0.3,0.3,0.3l2.1,0.9
		c0,0,0,0,0,0c0,0,0,0,0,0c0.1,0,0.1,0,0.2,0c0,0,0.1,0,0.1,0c0,0,0.1,0,0.1,0c0,0,0.1,0,0.1,0c0,0,0.1,0,0.1-0.1c0,0,0,0,0.1,0
		c0,0,0,0,0,0l3.7-3.7c0,0,0,0,0,0c0,0,0,0,0,0c0,0,0.1-0.1,0.1-0.1c0,0,0-0.1,0-0.1c0-0.1,0-0.1,0-0.2
		C83.2,29.7,83.2,29.6,83.2,29.5C83.2,29.6,83.2,29.6,83.2,29.5z"/>
	<path class="st0" d="M25.4,72.4c0.1,0.1,0.1,0.1,0.6,0.2c0.7,0,1.7,0.1,2.8,1l43.9-43.9l-2.5-1c-0.5-0.2-0.8-0.6-1-1l-1.1-2.7
		L24.2,68.9c1,1.1,1,2.2,1.1,2.9C25.3,72.3,25.3,72.3,25.4,72.4z"/>
	<path class="st0" d="M74.9,33.3l-1.2-2.8l-44,44c0.7,1,0.8,1.9,0.8,2.5c0,0.5,0,0.5,0.2,0.6c0.1,0.1,0.1,0.1,0.6,0.2
		c0.3,0,0.9,0,1.6,0.3c0.5,0.2,0.9,0.5,1.1,1l44-44l-2-0.8C75.5,34.1,75.1,33.7,74.9,33.3z"/>
	<path class="st0" d="M19.8,65c0.2,0.6,0.3,1.2,0.3,1.6c0,0.5,0,0.5,0.2,0.6c0.1,0.1,0.1,0.1,0.6,0.2c0.6,0,1.5,0.1,2.4,0.7l44-44
		l-2.6-1.1c-0.5-0.2-0.9-0.6-1-1.1l-0.8-2l-44,44C19.2,64.1,19.6,64.5,19.8,65z"/>
	<path class="st0" d="M72.1,89.6c-0.1,0-10.9,2.5-16.6,0.2c-3.5-1.4-7.3-1.4-10.8,0c-5.6,2.2-16.5-0.2-16.5-0.3
		c-8.3-2.3-17.3,0.7-17.7,0.8c-0.3,0.1-0.5,0.5-0.4,0.8c0.1,0.3,0.5,0.5,0.8,0.4c0.1,0,9-3,17-0.8c0.5,0.1,11.3,2.6,17.4,0.2
		c3.2-1.2,6.6-1.2,9.9,0c6,2.4,16.9-0.1,17.3-0.2c0.1,0,0.2-0.1,0.3-0.2c0.2-0.2,0.2-0.4,0.2-0.6C72.8,89.8,72.4,89.5,72.1,89.6z"/>
	<path class="st0" d="M88.3,16.4l-6.8-6.8c-2.3-2.3-6.1-2.3-8.4,0l-4,4c0.4,0.2,0.8,0.6,1,1l0.5,1.3l3.3,1.4c0.5,0.2,0.8,0.6,1,1
		l1.4,3.3l3.3,1.4c0.5,0.2,0.8,0.6,1,1l1.4,3.3l1.3,0.6c0.5,0.2,0.8,0.5,1,1l4-4C90.6,22.5,90.6,18.7,88.3,16.4z"/>
	<path class="st0" d="M10.9,87.8l6.5-2.2l-5.2-5.2L10,87c-0.1,0.2,0,0.5,0.2,0.7C10.4,87.9,10.6,87.9,10.9,87.8z"/>
	<path class="st0" d="M32.4,80.6C32.5,80.6,32.5,80.5,32.4,80.6C32.5,80.5,32.5,80.5,32.4,80.6c0.1-0.1,0.2-0.1,0.2-0.1c0,0,0,0,0,0
		c0,0,0,0,0-0.1c0,0,0-0.1,0.1-0.1c0,0,0-0.1,0-0.1c0,0,0-0.1,0-0.1c0,0,0,0,0,0c0,0,0,0,0-0.1c0,0,0-0.1,0-0.1c0,0,0,0,0,0
		c0,0,0-0.1,0-0.1c0-0.1-0.1-0.1-0.1-0.2c0,0,0,0,0,0c0,0-0.1-0.1-0.2-0.1c0,0,0,0,0,0c0,0,0,0,0,0c-0.4-0.2-0.9-0.2-1.2-0.2
		c-0.6,0-1-0.1-1.5-0.5c-0.5-0.5-0.5-0.9-0.5-1.5c0-0.7-0.1-1.5-0.9-2.3c-0.8-0.8-1.6-0.9-2.3-0.9c-0.6,0-1-0.1-1.5-0.5
		C24,72.9,24,72.4,24,71.9c0-0.7-0.1-1.5-0.9-2.3c-0.8-0.8-1.6-0.9-2.3-0.9c-0.6,0-1-0.1-1.5-0.5c-0.5-0.5-0.5-0.9-0.5-1.5
		c0-0.4-0.1-0.8-0.2-1.2c0,0,0,0,0,0c0,0,0,0,0-0.1c0,0,0-0.1-0.1-0.1c-0.1-0.1-0.2-0.2-0.4-0.2c0,0,0,0,0,0c0,0,0,0,0,0
		c0,0-0.1,0-0.1,0c0,0-0.1,0-0.1,0c0,0,0,0,0,0c-0.1,0-0.1,0-0.2,0.1c0,0,0,0,0,0c-0.1,0-0.1,0.1-0.1,0.1c0,0-0.1,0.1-0.1,0.2
		c0,0,0,0,0,0c0,0,0,0,0,0l-4.6,13.7l6.1,6.1L32.4,80.6z"/>
</g>
</svg>
