<?xml version="1.0" encoding="utf-8"?>
<!-- Generator: Adobe Illustrator 23.0.1, SVG Export Plug-In . SVG Version: 6.00 Build 0)  -->
<svg version="1.1"
	 id="Layer_1" xmlns:cc="http://creativecommons.org/ns#" xmlns:dc="http://purl.org/dc/elements/1.1/" xmlns:inkscape="http://www.inkscape.org/namespaces/inkscape" xmlns:rdf="http://www.w3.org/1999/02/22-rdf-syntax-ns#" xmlns:sodipodi="http://sodipodi.sourceforge.net/DTD/sodipodi-0.dtd" xmlns:svg="http://www.w3.org/2000/svg"
	 xmlns="http://www.w3.org/2000/svg" xmlns:xlink="http://www.w3.org/1999/xlink" x="0px" y="0px" viewBox="0 0 100 100"
	 style="enable-background:new 0 0 100 100;" xml:space="preserve">
<style type="text/css">
	.st0{fill:#BE9441;}
</style>
<g transform="translate(0,-284.29998)">
	<path class="st0" d="M49.8,317.1c-3.2,0.1-5.8,2.4-6.5,5.4h-6.5c-6.9-5.8-17.2-4.8-23,2.1s-4.8,17.2,2.1,23
		c6.9,5.8,17.2,4.8,23-2.1c0.5-0.6,1-1.3,1.5-2l4.6-7.6c1.7-2.8,5.3-3.7,8.1-2c0.8,0.5,1.5,1.2,2,2l4.6,7.6
		c4.6,7.7,14.7,10.2,22.4,5.6c7.7-4.6,10.2-14.7,5.6-22.4C83,319,73,316.5,65.2,321.1c-0.7,0.4-1.4,0.9-2,1.5h-6.5
		C56,319.3,53.1,317,49.8,317.1z M26,320.7c7.9-0.2,14.5,6.1,14.7,14c0,0.1,0,0.3,0,0.4c0,7.9-6.4,14.3-14.3,14.3S12,343,12,335.1
		C12,327.3,18.2,320.9,26,320.7z M73.3,320.7c7.9-0.2,14.5,6.1,14.7,14c0,0.1,0,0.3,0,0.4c0,7.9-6.4,14.3-14.3,14.3
		c-7.9,0-14.3-6.4-14.3-14.3C59.3,327.3,65.5,320.9,73.3,320.7z M49.9,321.8c1.2,0,2.1,0.9,2.2,2.1c0,0,0,0,0,0.1
		c0,1.2-0.9,2.1-2.1,2.1c-1.2,0-2.1-0.9-2.1-2.1c0,0,0,0,0,0C47.9,322.8,48.8,321.9,49.9,321.8z"/>
	<path class="st0" d="M17.5,338.5c-1.8-4.9,0.6-10.3,5.5-12.1c2.2-0.8,4.7-0.8,6.9,0.1c0.5,0.2,1.1,0,1.3-0.5c0.2-0.5,0-1-0.5-1.3
		c-5.8-2.4-12.4,0.3-14.9,6.1c-1.1,2.7-1.2,5.7-0.1,8.4c0.2,0.5,0.8,0.7,1.3,0.6C17.5,339.5,17.7,338.9,17.5,338.5L17.5,338.5z"/>
	<path class="st0" d="M64.8,338.5c-1.8-4.9,0.6-10.3,5.5-12.1c2.2-0.8,4.7-0.8,6.9,0.1c0.5,0.2,1.1,0,1.3-0.5c0.2-0.5,0-1.1-0.5-1.3
		l0,0c-5.8-2.4-12.4,0.3-14.9,6.1c-1.1,2.7-1.2,5.7-0.1,8.4c0.2,0.5,0.8,0.7,1.3,0.6C64.8,339.5,65,338.9,64.8,338.5L64.8,338.5z"/>
</g>
</svg>
