<?xml version="1.0" encoding="utf-8"?>
<!-- Generator: Adobe Illustrator 23.0.1, SVG Export Plug-In . SVG Version: 6.00 Build 0)  -->
<svg version="1.1" xmlns="http://www.w3.org/2000/svg" xmlns:xlink="http://www.w3.org/1999/xlink" x="0px" y="0px"
	 viewBox="0 0 100 100" style="enable-background:new 0 0 100 100;" xml:space="preserve">
<style type="text/css">
	.st0{fill:#BE9441;}
</style>
<g id="Layer_2">
</g>
<g id="Layer_1">
	<g>
		<path class="st0" d="M71,49.9c0-11.5-9.4-21-21-21s-21,9.4-21,21c0,1.6,0.2,3.3,0.6,5c0.7,3.2,2,5.8,3.9,9.2
			c1,1.8,1.9,2.8,2.7,3.6c1.1,1.2,1.2,1.4,1.2,3.5V76c0,2,1.2,3.7,2.8,4.6c0.9,5.8,3.6,9.6,9.7,9.6s8.9-3.7,9.7-9.6
			c1.7-0.9,2.8-2.6,2.8-4.6v-4.8c0-2,0.3-2.3,1.2-3.5c0.7-0.8,1.7-1.9,2.7-3.6c1.9-3.4,3.3-6,3.9-9.2C70.8,53.2,71,51.5,71,49.9z
			 M57.1,71.5v4.3H42.8v-4.3H57.1z M50,84.7c-1.5,0-3.4,0-4.3-3.6h8.4C53.3,84.7,51.5,84.7,50,84.7z M65.2,53.6L65.2,53.6
			c-0.5,2.6-1.7,4.8-3.4,7.8c-0.7,1.2-1.4,2-2,2.7c-0.6,0.7-1.2,1.3-1.6,2H41.7c-0.4-0.7-1-1.4-1.6-2c-0.6-0.7-1.2-1.4-2-2.7
			c-1.7-2.9-2.8-5.1-3.4-7.7v-0.1c-0.4-1.2-0.4-2.6-0.4-3.7c0-8.6,7-15.7,15.7-15.7s15.7,7,15.7,15.7C65.6,51.1,65.5,52.3,65.2,53.6
			z"/>
		<path class="st0" d="M87.3,47.2h-6.5c-1.5,0-2.7,1.2-2.7,2.7c0,1.5,1.2,2.7,2.7,2.7h6.5c1.5,0,2.7-1.2,2.7-2.7
			C90,48.3,88.8,47.2,87.3,47.2z"/>
		<path class="st0" d="M71.7,30.7c0.7,0,1.3-0.3,1.9-0.8l4.6-4.6c1.1-1.1,1.1-2.7,0-3.7c-1.1-1.1-2.7-1.1-3.7,0l-4.6,4.6
			c-1.1,1.1-1.1,2.7,0,3.7C70.4,30.4,71.1,30.7,71.7,30.7z"/>
		<path class="st0" d="M50,21.7c1.5,0,2.7-1.2,2.7-2.7v-6.5c0-1.5-1.2-2.7-2.7-2.7c-1.5,0-2.7,1.2-2.7,2.7V19
			C47.3,20.4,48.4,21.7,50,21.7z"/>
		<path class="st0" d="M26.3,29.9c0.5,0.5,1.2,0.8,1.9,0.8c0.6,0,1.3-0.3,1.9-0.8c1.1-1.1,1.1-2.7,0-3.7l-4.6-4.6
			c-1.1-1.1-2.7-1.1-3.7,0c-1.1,1.1-1.1,2.7,0,3.7L26.3,29.9z"/>
		<path class="st0" d="M21.8,49.8c0-1.5-1.2-2.7-2.7-2.7h-6.5c-1.5,0-2.7,1.2-2.7,2.7c0,1.5,1.2,2.7,2.7,2.7h6.5
			C20.5,52.5,21.8,51.3,21.8,49.8z"/>
		<path class="st0" d="M26.3,69.8l-4.6,4.6c-1.1,1.1-1.1,2.7,0,3.7c0.5,0.5,1.2,0.8,1.9,0.8s1.3-0.3,1.9-0.8l4.6-4.6
			c1.1-1.1,1.1-2.7,0-3.7C29,68.7,27.3,68.7,26.3,69.8z"/>
		<path class="st0" d="M73.6,69.8c-1.1-1.1-2.7-1.1-3.7,0c-1.1,1.1-1.1,2.7,0,3.7l4.6,4.6c0.5,0.5,1.2,0.8,1.9,0.8
			c0.6,0,1.3-0.3,1.9-0.8c1.1-1.1,1.1-2.7,0-3.7L73.6,69.8z"/>
	</g>
</g>
</svg>
