<?xml version="1.0" encoding="utf-8"?>
<!-- Generator: Adobe Illustrator 23.0.1, SVG Export Plug-In . SVG Version: 6.00 Build 0)  -->
<svg version="1.1" id="Layer_1" xmlns="http://www.w3.org/2000/svg" xmlns:xlink="http://www.w3.org/1999/xlink" x="0px" y="0px"
	 viewBox="0 0 100 100" style="enable-background:new 0 0 100 100;" xml:space="preserve">
<style type="text/css">
	.st0{fill:#BE9441;}
</style>
<g>
	<path class="st0" d="M88,43.3c-1.3-1.3-3-2-4.8-2s-3.5,0.7-4.8,2L68.2,53.6c-0.5-0.4-1.1-0.6-1.8-0.8c0,0-0.1,0-0.1,0
		c-0.3-0.1-0.5-0.1-0.8-0.2c-0.1,0-0.1,0-0.2,0c-0.3,0-0.6-0.1-0.9-0.1c0,0,0,0,0,0s0,0,0,0l-31,0c-2.8,0-5.4,1.1-7.5,3L10.5,70.8
		c-0.3,0.3-0.5,0.8-0.5,1.3c0,0.5,0.2,0.9,0.5,1.3l14,14c0.3,0.3,0.8,0.5,1.3,0.5c0.5,0,0.9-0.2,1.3-0.5l6.6-6.6h23.6
		c1.8,0,3.5-0.7,4.8-2l26-26c1.3-1.3,2-3,2-4.8S89.3,44.6,88,43.3z M85.4,50.3l-26,26c-0.6,0.6-1.4,0.9-2.2,0.9H32.9
		c-0.5,0-0.9,0.2-1.3,0.5l-5.8,5.8L14.4,72.1l14.1-14c1.3-1.3,3.1-2,4.9-2l31,0c0.9,0,1.8,0.4,2.4,1.2c0,0,0.1,0.1,0.1,0.1
		c0.4,0.5,0.6,1.2,0.6,1.9c0,0.8-0.3,1.6-0.9,2.2c-0.6,0.6-1.4,0.9-2.2,0.9c0,0,0,0,0,0H47.3c-1,0-1.8,0.8-1.8,1.8
		c0,1,0.8,1.8,1.8,1.8h17.1c0,0,0,0,0,0c1.8,0,3.5-0.7,4.8-2c1.3-1.3,2-3,2-4.8c0-1-0.2-2-0.7-2.8L81,45.9c1.2-1.2,3.2-1.2,4.4,0
		c0.6,0.6,0.9,1.4,0.9,2.2C86.4,48.9,86,49.7,85.4,50.3z"/>
	<path class="st0" d="M48.1,46.5c0.1,0,0.1,0,0.2,0c0,0,0.1,0,0.1,0c0.1,0,0.3,0,0.4,0c6.2,0,12-2.4,16.4-6.8
		c4.5-4.5,6.9-10.5,6.8-16.8c0-1-0.8-1.8-1.8-1.8c-5.2-0.1-10.1,1.5-14.1,4.5c-0.8-4.9-3.1-9.4-6.8-13c-0.7-0.7-1.8-0.7-2.5,0
		c-4.6,4.4-7.1,10.4-7.1,16.7c0,6.4,2.5,12.3,7.1,16.7C47.2,46.3,47.7,46.5,48.1,46.5z M62.8,37.1c-2.9,2.9-6.5,4.8-10.5,5.4
		c2.6-3.7,4-8,4.2-12.5c3.3-3.1,7.5-5,12-5.3C68.1,29.5,66.1,33.8,62.8,37.1z M48.1,16.5c3.1,3.6,4.7,8,4.7,12.8s-1.7,9.2-4.7,12.8
		c-3.1-3.6-4.7-8-4.7-12.8S45.1,20.1,48.1,16.5z"/>
</g>
</svg>
